<?xml version="1.0" encoding="UTF-8" standalone="no"?>
<!-- Created with Inkscape (http://www.inkscape.org/) -->

<svg
   xmlns:dc="http://purl.org/dc/elements/1.1/"
   xmlns:cc="http://creativecommons.org/ns#"
   xmlns:rdf="http://www.w3.org/1999/02/22-rdf-syntax-ns#"
   xmlns:svg="http://www.w3.org/2000/svg"
   xmlns="http://www.w3.org/2000/svg"
   xmlns:sodipodi="http://sodipodi.sourceforge.net/DTD/sodipodi-0.dtd"
   xmlns:inkscape="http://www.inkscape.org/namespaces/inkscape"
   width="238.79625mm"
   height="52.468395mm"
   viewBox="0 0 238.79624 52.468395"
   version="1.1"
   id="svg1353"
   inkscape:version="0.92.3 (2405546, 2018-03-11)"
   sodipodi:docname="logo.svg">
  <defs
     id="defs1347" />
  <sodipodi:namedview
     id="base"
     pagecolor="#ffffff"
     bordercolor="#666666"
     borderopacity="1.0"
     inkscape:pageopacity="0.0"
     inkscape:pageshadow="2"
     inkscape:zoom="0.5"
     inkscape:cx="387.05613"
     inkscape:cy="305.68179"
     inkscape:document-units="mm"
     inkscape:current-layer="layer1"
     showgrid="false"
     showborder="true"
     inkscape:window-width="1366"
     inkscape:window-height="705"
     inkscape:window-x="-8"
     inkscape:window-y="-8"
     inkscape:window-maximized="1"
     fit-margin-top="0"
     fit-margin-left="0"
     fit-margin-right="0"
     fit-margin-bottom="0" />
  <metadata
     id="metadata1350">
    <rdf:RDF>
      <cc:Work
         rdf:about="">
        <dc:format>image/svg+xml</dc:format>
        <dc:type
           rdf:resource="http://purl.org/dc/dcmitype/StillImage" />
        <dc:title></dc:title>
      </cc:Work>
    </rdf:RDF>
  </metadata>
  <g
     inkscape:label="Capa 1"
     inkscape:groupmode="layer"
     id="layer1"
     transform="translate(79.678788,-116.20732)">
    <g
       id="g1345"
       transform="matrix(0.63497309,0,0,0.63497309,-33.116933,45.021985)"
       style="fill:#d5fff6;stroke:#d5fff6">
      <path
         style="opacity:1;fill:#d5fff6;fill-opacity:1;stroke:#d5fff6;stroke-width:1.32300007;stroke-miterlimit:4;stroke-dasharray:none;stroke-opacity:1"
         d="m -39.6875,149.36246 c -6.767523,0 -14.240112,11.863 -19.608353,17.4803 -5.368242,5.61731 -8.632137,4.98892 -8.569772,11.75616 0.06724,7.29614 6.929792,15.47812 15.478125,15.47812 5.069462,-0.002 7.638293,-2.1489 12.707752,-2.15284 5.063985,-0.004 7.628268,2.14567 12.692248,2.15284 8.548332,0 15.410885,-8.18198 15.478125,-15.47812 0.06237,-6.76724 -3.995279,-6.13885 -9.363521,-11.75616 -5.368242,-5.6173 -12.047081,-17.4803 -18.814604,-17.4803 z"
         id="path1307"
         inkscape:connector-curvature="0"
         sodipodi:nodetypes="ssscscszs" />
      <g
         id="g1343"
         transform="translate(0.92596614)"
         style="fill:#d5fff6;stroke:#d5fff6">
        <g
           transform="translate(98.927017,3.7041667)"
           id="g1313"
           style="fill:#d5fff6;stroke:#d5fff6">
          <path
             style="opacity:1;fill:#d5fff6;fill-opacity:1;stroke:#d5fff6;stroke-width:1.32300007;stroke-miterlimit:4;stroke-dasharray:none;stroke-opacity:1"
             d="m -139.53249,109.06498 c -0.1829,0 -2.7621,7.60493 -2.7621,12.34757 -0.16686,1.93555 1.09142,-0.30832 2.76215,-0.3421 2.08556,0.067 2.76109,2.28522 2.76216,0.3421 0,-4.74264 -2.57919,-12.34757 -2.76211,-12.34757 z"
             id="path1309"
             inkscape:connector-curvature="0"
             sodipodi:nodetypes="scccss" />
          <ellipse
             ry="8.7931681"
             rx="5.238483"
             cy="132.85904"
             cx="-139.54056"
             id="ellipse1311"
             style="opacity:1;fill:#d5fff6;fill-opacity:1;stroke:#d5fff6;stroke-width:1.32300007;stroke-miterlimit:4;stroke-dasharray:none;stroke-opacity:1" />
        </g>
        <g
           id="g1327"
           style="fill:#d5fff6;stroke:#d5fff6">
          <g
             id="g1319"
             transform="rotate(-8.3574487,-120.12576,23.89512)"
             style="fill:#d5fff6;stroke:#d5fff6">
            <path
               style="opacity:1;fill:#d5fff6;fill-opacity:1;stroke:#d5fff6;stroke-width:1.32300007;stroke-miterlimit:4;stroke-dasharray:none;stroke-opacity:1"
               d="m -71.596873,126.30191 c -0.17929,-0.0362 -3.80125,4.87226 -5.15052,11.55698 -0.54652,1.86428 1.14018,-0.13394 2.77523,0.21117 2.04166,0.43094 2.72993,1.61998 2.35924,-0.28746 -0.79305,-4.08072 0.19543,-11.44448 0.0161,-11.48067 z"
               id="path1315"
               inkscape:connector-curvature="0"
               sodipodi:nodetypes="scssss" />
            <ellipse
               ry="8.7931681"
               rx="5.238483"
               cy="149.79237"
               cx="-74.176964"
               id="ellipse1317"
               style="opacity:1;fill:#d5fff6;fill-opacity:1;stroke:#d5fff6;stroke-width:1.32300007;stroke-miterlimit:4;stroke-dasharray:none;stroke-opacity:1" />
          </g>
          <g
             transform="rotate(-15,-52.930991,128.59798)"
             id="g1325"
             style="fill:#d5fff6;stroke:#d5fff6">
            <path
               sodipodi:nodetypes="scssss"
               inkscape:connector-curvature="0"
               id="path1321"
               d="m -71.596873,126.30191 c -0.17929,-0.0362 -3.80125,4.87226 -5.15052,11.55698 -0.54652,1.86428 1.14018,-0.13394 2.77523,0.21117 2.04166,0.43094 2.72993,1.61998 2.35924,-0.28746 -0.79305,-4.08072 0.19543,-11.44448 0.0161,-11.48067 z"
               style="opacity:1;fill:#d5fff6;fill-opacity:1;stroke:#d5fff6;stroke-width:1.32300007;stroke-miterlimit:4;stroke-dasharray:none;stroke-opacity:1" />
            <ellipse
               style="opacity:1;fill:#d5fff6;fill-opacity:1;stroke:#d5fff6;stroke-width:1.32300007;stroke-miterlimit:4;stroke-dasharray:none;stroke-opacity:1"
               id="ellipse1323"
               cx="-74.176964"
               cy="149.79237"
               rx="5.238483"
               ry="8.7931681" />
          </g>
        </g>
        <g
           transform="matrix(-1,0,0,1,-81.227084,0)"
           id="g1341"
           style="fill:#d5fff6;stroke:#d5fff6">
          <g
             transform="rotate(-8.3574487,-120.12576,23.89512)"
             id="g1333"
             style="fill:#d5fff6;stroke:#d5fff6">
            <path
               sodipodi:nodetypes="scssss"
               inkscape:connector-curvature="0"
               id="path1329"
               d="m -71.596873,126.30191 c -0.17929,-0.0362 -3.80125,4.87226 -5.15052,11.55698 -0.54652,1.86428 1.14018,-0.13394 2.77523,0.21117 2.04166,0.43094 2.72993,1.61998 2.35924,-0.28746 -0.79305,-4.08072 0.19543,-11.44448 0.0161,-11.48067 z"
               style="opacity:1;fill:#d5fff6;fill-opacity:1;stroke:#d5fff6;stroke-width:1.32300007;stroke-miterlimit:4;stroke-dasharray:none;stroke-opacity:1" />
            <ellipse
               style="opacity:1;fill:#d5fff6;fill-opacity:1;stroke:#d5fff6;stroke-width:1.32300007;stroke-miterlimit:4;stroke-dasharray:none;stroke-opacity:1"
               id="ellipse1331"
               cx="-74.176964"
               cy="149.79237"
               rx="5.238483"
               ry="8.7931681" />
          </g>
          <g
             id="g1339"
             transform="rotate(-15,-52.930991,128.59798)"
             style="fill:#d5fff6;stroke:#d5fff6">
            <path
               style="opacity:1;fill:#d5fff6;fill-opacity:1;stroke:#d5fff6;stroke-width:1.32300007;stroke-miterlimit:4;stroke-dasharray:none;stroke-opacity:1"
               d="m -71.596873,126.30191 c -0.17929,-0.0362 -3.80125,4.87226 -5.15052,11.55698 -0.54652,1.86428 1.14018,-0.13394 2.77523,0.21117 2.04166,0.43094 2.72993,1.61998 2.35924,-0.28746 -0.79305,-4.08072 0.19543,-11.44448 0.0161,-11.48067 z"
               id="path1335"
               inkscape:connector-curvature="0"
               sodipodi:nodetypes="scssss" />
            <ellipse
               ry="8.7931681"
               rx="5.238483"
               cy="149.79237"
               cx="-74.176964"
               id="ellipse1337"
               style="opacity:1;fill:#d5fff6;fill-opacity:1;stroke:#d5fff6;stroke-width:1.32300007;stroke-miterlimit:4;stroke-dasharray:none;stroke-opacity:1" />
          </g>
        </g>
      </g>
    </g>
    <text
       xml:space="preserve"
       style="font-style:normal;font-variant:normal;font-weight:bold;font-stretch:normal;font-size:41.54663849px;line-height:1.25;font-family:'Merriweather Sans';-inkscape-font-specification:'Merriweather Sans, Bold';font-variant-ligatures:normal;font-variant-caps:normal;font-variant-numeric:normal;font-feature-settings:normal;text-align:start;letter-spacing:0px;word-spacing:0px;writing-mode:lr-tb;text-anchor:start;fill:#ffffff;fill-opacity:1;stroke:#ffffff;stroke-width:0.41594508"
       x="-20.584978"
       y="161.98659"
       id="text1138"><tspan
         sodipodi:role="line"
         id="tspan1136"
         x="-20.584978"
         y="161.98659"
         style="font-style:normal;font-variant:normal;font-weight:bold;font-stretch:normal;font-size:41.54663849px;font-family:'Merriweather Sans';-inkscape-font-specification:'Merriweather Sans, Bold';font-variant-ligatures:normal;font-variant-caps:normal;font-variant-numeric:normal;font-feature-settings:normal;text-align:start;writing-mode:lr-tb;text-anchor:start;fill:#ffffff;stroke:#ffffff;stroke-width:0.41594508">Bearsoft</tspan></text>
  </g>
</svg>
