<?xml version="1.0" encoding="UTF-8" standalone="no"?>
<!-- Created with Inkscape (http://www.inkscape.org/) -->

<svg
   xmlns:dc="http://purl.org/dc/elements/1.1/"
   xmlns:cc="http://creativecommons.org/ns#"
   xmlns:rdf="http://www.w3.org/1999/02/22-rdf-syntax-ns#"
   xmlns:svg="http://www.w3.org/2000/svg"
   xmlns="http://www.w3.org/2000/svg"
   xmlns:sodipodi="http://sodipodi.sourceforge.net/DTD/sodipodi-0.dtd"
   xmlns:inkscape="http://www.inkscape.org/namespaces/inkscape"
   width="200"
   height="200"
   viewBox="0 0 52.916666 52.916668"
   version="1.1"
   id="svg903"
   inkscape:export-filename="C:\Users\jfdel\Documents\GitHub\bearsoft\public\assets\pattern.png"
   inkscape:export-xdpi="96"
   inkscape:export-ydpi="96"
   sodipodi:docname="pattern.svg"
   inkscape:version="0.92.3 (2405546, 2018-03-11)">
  <defs
     id="defs897" />
  <sodipodi:namedview
     id="base"
     pagecolor="#ffffff"
     bordercolor="#666666"
     borderopacity="1.0"
     inkscape:pageopacity="0.0"
     inkscape:pageshadow="2"
     inkscape:zoom="1"
     inkscape:cx="123.31272"
     inkscape:cy="75.875691"
     inkscape:document-units="mm"
     inkscape:current-layer="layer1"
     showgrid="false"
     inkscape:window-width="1366"
     inkscape:window-height="705"
     inkscape:window-x="-8"
     inkscape:window-y="-8"
     inkscape:window-maximized="1"
     units="px" />
  <metadata
     id="metadata900">
    <rdf:RDF>
      <cc:Work
         rdf:about="">
        <dc:format>image/svg+xml</dc:format>
        <dc:type
           rdf:resource="http://purl.org/dc/dcmitype/StillImage" />
        <dc:title></dc:title>
      </cc:Work>
    </rdf:RDF>
  </metadata>
  <g
     inkscape:label="Capa 1"
     inkscape:groupmode="layer"
     id="layer1"
     transform="translate(0,-244.08332)">
    <rect
       style="opacity:1;fill:#d1ece7;fill-opacity:1;stroke:none;stroke-width:2.29897332;stroke-linejoin:round;stroke-miterlimit:4;stroke-dasharray:none;stroke-opacity:1"
       id="rect2227"
       width="52.916668"
       height="52.916668"
       x="5.5511791e-006"
       y="244.08331" />
    <g
       style="opacity:0.5;fill:#ffffff;stroke:#ffffff"
       transform="matrix(0.21035984,0,0,0.21035984,35.085351,264.39278)"
       id="g2267">
      <path
         sodipodi:nodetypes="ssscscszs"
         inkscape:connector-curvature="0"
         id="path2229"
         d="m -39.6875,149.36246 c -6.767523,0 -14.240112,11.863 -19.608353,17.4803 -5.368242,5.61731 -8.632137,4.98892 -8.569772,11.75616 0.06724,7.29614 6.929792,15.47812 15.478125,15.47812 5.069462,-0.002 7.638293,-2.1489 12.707752,-2.15284 5.063985,-0.004 7.628268,2.14567 12.692248,2.15284 8.548332,0 15.410885,-8.18198 15.478125,-15.47812 0.06237,-6.76724 -3.995279,-6.13885 -9.363521,-11.75616 -5.368242,-5.6173 -12.047081,-17.4803 -18.814604,-17.4803 z"
         style="opacity:1;fill:#ffffff;fill-opacity:1;stroke:#ffffff;stroke-width:1.32300007;stroke-miterlimit:4;stroke-dasharray:none;stroke-opacity:1" />
      <g
         style="fill:#ffffff;stroke:#ffffff"
         transform="translate(0.92596614)"
         id="g2265">
        <g
           style="fill:#ffffff;stroke:#ffffff"
           id="g2235"
           transform="translate(98.927017,3.7041667)">
          <path
             sodipodi:nodetypes="scccss"
             inkscape:connector-curvature="0"
             id="path2231"
             d="m -139.53249,109.06498 c -0.1829,0 -2.7621,7.60493 -2.7621,12.34757 -0.16686,1.93555 1.09142,-0.30832 2.76215,-0.3421 2.08556,0.067 2.76109,2.28522 2.76216,0.3421 0,-4.74264 -2.57919,-12.34757 -2.76211,-12.34757 z"
             style="opacity:1;fill:#ffffff;fill-opacity:1;stroke:#ffffff;stroke-width:1.32300007;stroke-miterlimit:4;stroke-dasharray:none;stroke-opacity:1" />
          <ellipse
             style="opacity:1;fill:#ffffff;fill-opacity:1;stroke:#ffffff;stroke-width:1.32300007;stroke-miterlimit:4;stroke-dasharray:none;stroke-opacity:1"
             id="ellipse2233"
             cx="-139.54056"
             cy="132.85904"
             rx="5.238483"
             ry="8.7931681" />
        </g>
        <g
           style="fill:#ffffff;stroke:#ffffff"
           id="g2249">
          <g
             style="fill:#ffffff;stroke:#ffffff"
             transform="rotate(-8.3574487,-120.12576,23.89512)"
             id="g2241">
            <path
               sodipodi:nodetypes="scssss"
               inkscape:connector-curvature="0"
               id="path2237"
               d="m -71.596873,126.30191 c -0.17929,-0.0362 -3.80125,4.87226 -5.15052,11.55698 -0.54652,1.86428 1.14018,-0.13394 2.77523,0.21117 2.04166,0.43094 2.72993,1.61998 2.35924,-0.28746 -0.79305,-4.08072 0.19543,-11.44448 0.0161,-11.48067 z"
               style="opacity:1;fill:#ffffff;fill-opacity:1;stroke:#ffffff;stroke-width:1.32300007;stroke-miterlimit:4;stroke-dasharray:none;stroke-opacity:1" />
            <ellipse
               style="opacity:1;fill:#ffffff;fill-opacity:1;stroke:#ffffff;stroke-width:1.32300007;stroke-miterlimit:4;stroke-dasharray:none;stroke-opacity:1"
               id="ellipse2239"
               cx="-74.176964"
               cy="149.79237"
               rx="5.238483"
               ry="8.7931681" />
          </g>
          <g
             style="fill:#ffffff;stroke:#ffffff"
             id="g2247"
             transform="rotate(-15,-52.930991,128.59798)">
            <path
               style="opacity:1;fill:#ffffff;fill-opacity:1;stroke:#ffffff;stroke-width:1.32300007;stroke-miterlimit:4;stroke-dasharray:none;stroke-opacity:1"
               d="m -71.596873,126.30191 c -0.17929,-0.0362 -3.80125,4.87226 -5.15052,11.55698 -0.54652,1.86428 1.14018,-0.13394 2.77523,0.21117 2.04166,0.43094 2.72993,1.61998 2.35924,-0.28746 -0.79305,-4.08072 0.19543,-11.44448 0.0161,-11.48067 z"
               id="path2243"
               inkscape:connector-curvature="0"
               sodipodi:nodetypes="scssss" />
            <ellipse
               ry="8.7931681"
               rx="5.238483"
               cy="149.79237"
               cx="-74.176964"
               id="ellipse2245"
               style="opacity:1;fill:#ffffff;fill-opacity:1;stroke:#ffffff;stroke-width:1.32300007;stroke-miterlimit:4;stroke-dasharray:none;stroke-opacity:1" />
          </g>
        </g>
        <g
           style="fill:#ffffff;stroke:#ffffff"
           id="g2263"
           transform="matrix(-1,0,0,1,-81.227084,0)">
          <g
             style="fill:#ffffff;stroke:#ffffff"
             id="g2255"
             transform="rotate(-8.3574487,-120.12576,23.89512)">
            <path
               style="opacity:1;fill:#ffffff;fill-opacity:1;stroke:#ffffff;stroke-width:1.32300007;stroke-miterlimit:4;stroke-dasharray:none;stroke-opacity:1"
               d="m -71.596873,126.30191 c -0.17929,-0.0362 -3.80125,4.87226 -5.15052,11.55698 -0.54652,1.86428 1.14018,-0.13394 2.77523,0.21117 2.04166,0.43094 2.72993,1.61998 2.35924,-0.28746 -0.79305,-4.08072 0.19543,-11.44448 0.0161,-11.48067 z"
               id="path2251"
               inkscape:connector-curvature="0"
               sodipodi:nodetypes="scssss" />
            <ellipse
               ry="8.7931681"
               rx="5.238483"
               cy="149.79237"
               cx="-74.176964"
               id="ellipse2253"
               style="opacity:1;fill:#ffffff;fill-opacity:1;stroke:#ffffff;stroke-width:1.32300007;stroke-miterlimit:4;stroke-dasharray:none;stroke-opacity:1" />
          </g>
          <g
             style="fill:#ffffff;stroke:#ffffff"
             transform="rotate(-15,-52.930991,128.59798)"
             id="g2261">
            <path
               sodipodi:nodetypes="scssss"
               inkscape:connector-curvature="0"
               id="path2257"
               d="m -71.596873,126.30191 c -0.17929,-0.0362 -3.80125,4.87226 -5.15052,11.55698 -0.54652,1.86428 1.14018,-0.13394 2.77523,0.21117 2.04166,0.43094 2.72993,1.61998 2.35924,-0.28746 -0.79305,-4.08072 0.19543,-11.44448 0.0161,-11.48067 z"
               style="opacity:1;fill:#ffffff;fill-opacity:1;stroke:#ffffff;stroke-width:1.32300007;stroke-miterlimit:4;stroke-dasharray:none;stroke-opacity:1" />
            <ellipse
               style="opacity:1;fill:#ffffff;fill-opacity:1;stroke:#ffffff;stroke-width:1.32300007;stroke-miterlimit:4;stroke-dasharray:none;stroke-opacity:1"
               id="ellipse2259"
               cx="-74.176964"
               cy="149.79237"
               rx="5.238483"
               ry="8.7931681" />
          </g>
        </g>
      </g>
    </g>
    <g
       id="g2311"
       transform="matrix(0.21035984,0,0,0.21035984,35.085351,211.47611)"
       style="opacity:0.5;fill:#ffffff;stroke:#ffffff">
      <path
         style="opacity:1;fill:#ffffff;fill-opacity:1;stroke:#ffffff;stroke-width:1.32300007;stroke-miterlimit:4;stroke-dasharray:none;stroke-opacity:1"
         d="m -39.6875,149.36246 c -6.767523,0 -14.240112,11.863 -19.608353,17.4803 -5.368242,5.61731 -8.632137,4.98892 -8.569772,11.75616 0.06724,7.29614 6.929792,15.47812 15.478125,15.47812 5.069462,-0.002 7.638293,-2.1489 12.707752,-2.15284 5.063985,-0.004 7.628268,2.14567 12.692248,2.15284 8.548332,0 15.410885,-8.18198 15.478125,-15.47812 0.06237,-6.76724 -3.995279,-6.13885 -9.363521,-11.75616 -5.368242,-5.6173 -12.047081,-17.4803 -18.814604,-17.4803 z"
         id="path2273"
         inkscape:connector-curvature="0"
         sodipodi:nodetypes="ssscscszs" />
      <g
         id="g2309"
         transform="translate(0.92596614)"
         style="fill:#ffffff;stroke:#ffffff">
        <g
           transform="translate(98.927017,3.7041667)"
           id="g2279"
           style="fill:#ffffff;stroke:#ffffff">
          <path
             style="opacity:1;fill:#ffffff;fill-opacity:1;stroke:#ffffff;stroke-width:1.32300007;stroke-miterlimit:4;stroke-dasharray:none;stroke-opacity:1"
             d="m -139.53249,109.06498 c -0.1829,0 -2.7621,7.60493 -2.7621,12.34757 -0.16686,1.93555 1.09142,-0.30832 2.76215,-0.3421 2.08556,0.067 2.76109,2.28522 2.76216,0.3421 0,-4.74264 -2.57919,-12.34757 -2.76211,-12.34757 z"
             id="path2275"
             inkscape:connector-curvature="0"
             sodipodi:nodetypes="scccss" />
          <ellipse
             ry="8.7931681"
             rx="5.238483"
             cy="132.85904"
             cx="-139.54056"
             id="ellipse2277"
             style="opacity:1;fill:#ffffff;fill-opacity:1;stroke:#ffffff;stroke-width:1.32300007;stroke-miterlimit:4;stroke-dasharray:none;stroke-opacity:1" />
        </g>
        <g
           id="g2293"
           style="fill:#ffffff;stroke:#ffffff">
          <g
             id="g2285"
             transform="rotate(-8.3574487,-120.12576,23.89512)"
             style="fill:#ffffff;stroke:#ffffff">
            <path
               style="opacity:1;fill:#ffffff;fill-opacity:1;stroke:#ffffff;stroke-width:1.32300007;stroke-miterlimit:4;stroke-dasharray:none;stroke-opacity:1"
               d="m -71.596873,126.30191 c -0.17929,-0.0362 -3.80125,4.87226 -5.15052,11.55698 -0.54652,1.86428 1.14018,-0.13394 2.77523,0.21117 2.04166,0.43094 2.72993,1.61998 2.35924,-0.28746 -0.79305,-4.08072 0.19543,-11.44448 0.0161,-11.48067 z"
               id="path2281"
               inkscape:connector-curvature="0"
               sodipodi:nodetypes="scssss" />
            <ellipse
               ry="8.7931681"
               rx="5.238483"
               cy="149.79237"
               cx="-74.176964"
               id="ellipse2283"
               style="opacity:1;fill:#ffffff;fill-opacity:1;stroke:#ffffff;stroke-width:1.32300007;stroke-miterlimit:4;stroke-dasharray:none;stroke-opacity:1" />
          </g>
          <g
             transform="rotate(-15,-52.930991,128.59798)"
             id="g2291"
             style="fill:#ffffff;stroke:#ffffff">
            <path
               sodipodi:nodetypes="scssss"
               inkscape:connector-curvature="0"
               id="path2287"
               d="m -71.596873,126.30191 c -0.17929,-0.0362 -3.80125,4.87226 -5.15052,11.55698 -0.54652,1.86428 1.14018,-0.13394 2.77523,0.21117 2.04166,0.43094 2.72993,1.61998 2.35924,-0.28746 -0.79305,-4.08072 0.19543,-11.44448 0.0161,-11.48067 z"
               style="opacity:1;fill:#ffffff;fill-opacity:1;stroke:#ffffff;stroke-width:1.32300007;stroke-miterlimit:4;stroke-dasharray:none;stroke-opacity:1" />
            <ellipse
               style="opacity:1;fill:#ffffff;fill-opacity:1;stroke:#ffffff;stroke-width:1.32300007;stroke-miterlimit:4;stroke-dasharray:none;stroke-opacity:1"
               id="ellipse2289"
               cx="-74.176964"
               cy="149.79237"
               rx="5.238483"
               ry="8.7931681" />
          </g>
        </g>
        <g
           transform="matrix(-1,0,0,1,-81.227084,0)"
           id="g2307"
           style="fill:#ffffff;stroke:#ffffff">
          <g
             transform="rotate(-8.3574487,-120.12576,23.89512)"
             id="g2299"
             style="fill:#ffffff;stroke:#ffffff">
            <path
               sodipodi:nodetypes="scssss"
               inkscape:connector-curvature="0"
               id="path2295"
               d="m -71.596873,126.30191 c -0.17929,-0.0362 -3.80125,4.87226 -5.15052,11.55698 -0.54652,1.86428 1.14018,-0.13394 2.77523,0.21117 2.04166,0.43094 2.72993,1.61998 2.35924,-0.28746 -0.79305,-4.08072 0.19543,-11.44448 0.0161,-11.48067 z"
               style="opacity:1;fill:#ffffff;fill-opacity:1;stroke:#ffffff;stroke-width:1.32300007;stroke-miterlimit:4;stroke-dasharray:none;stroke-opacity:1" />
            <ellipse
               style="opacity:1;fill:#ffffff;fill-opacity:1;stroke:#ffffff;stroke-width:1.32300007;stroke-miterlimit:4;stroke-dasharray:none;stroke-opacity:1"
               id="ellipse2297"
               cx="-74.176964"
               cy="149.79237"
               rx="5.238483"
               ry="8.7931681" />
          </g>
          <g
             id="g2305"
             transform="rotate(-15,-52.930991,128.59798)"
             style="fill:#ffffff;stroke:#ffffff">
            <path
               style="opacity:1;fill:#ffffff;fill-opacity:1;stroke:#ffffff;stroke-width:1.32300007;stroke-miterlimit:4;stroke-dasharray:none;stroke-opacity:1"
               d="m -71.596873,126.30191 c -0.17929,-0.0362 -3.80125,4.87226 -5.15052,11.55698 -0.54652,1.86428 1.14018,-0.13394 2.77523,0.21117 2.04166,0.43094 2.72993,1.61998 2.35924,-0.28746 -0.79305,-4.08072 0.19543,-11.44448 0.0161,-11.48067 z"
               id="path2301"
               inkscape:connector-curvature="0"
               sodipodi:nodetypes="scssss" />
            <ellipse
               ry="8.7931681"
               rx="5.238483"
               cy="149.79237"
               cx="-74.176964"
               id="ellipse2303"
               style="opacity:1;fill:#ffffff;fill-opacity:1;stroke:#ffffff;stroke-width:1.32300007;stroke-miterlimit:4;stroke-dasharray:none;stroke-opacity:1" />
          </g>
        </g>
      </g>
    </g>
    <g
       id="g2351"
       transform="matrix(0.21035984,0,0,0.21035984,8.0702059,237.93402)"
       style="opacity:0.5;fill:#ffffff;stroke:#ffffff">
      <path
         style="opacity:1;fill:#ffffff;fill-opacity:1;stroke:#ffffff;stroke-width:1.32300007;stroke-miterlimit:4;stroke-dasharray:none;stroke-opacity:1"
         d="m -39.6875,149.36246 c -6.767523,0 -14.240112,11.863 -19.608353,17.4803 -5.368242,5.61731 -8.632137,4.98892 -8.569772,11.75616 0.06724,7.29614 6.929792,15.47812 15.478125,15.47812 5.069462,-0.002 7.638293,-2.1489 12.707752,-2.15284 5.063985,-0.004 7.628268,2.14567 12.692248,2.15284 8.548332,0 15.410885,-8.18198 15.478125,-15.47812 0.06237,-6.76724 -3.995279,-6.13885 -9.363521,-11.75616 -5.368242,-5.6173 -12.047081,-17.4803 -18.814604,-17.4803 z"
         id="path2313"
         inkscape:connector-curvature="0"
         sodipodi:nodetypes="ssscscszs" />
      <g
         id="g2349"
         transform="translate(0.92596614)"
         style="fill:#ffffff;stroke:#ffffff">
        <g
           transform="translate(98.927017,3.7041667)"
           id="g2319"
           style="fill:#ffffff;stroke:#ffffff">
          <path
             style="opacity:1;fill:#ffffff;fill-opacity:1;stroke:#ffffff;stroke-width:1.32300007;stroke-miterlimit:4;stroke-dasharray:none;stroke-opacity:1"
             d="m -139.53249,109.06498 c -0.1829,0 -2.7621,7.60493 -2.7621,12.34757 -0.16686,1.93555 1.09142,-0.30832 2.76215,-0.3421 2.08556,0.067 2.76109,2.28522 2.76216,0.3421 0,-4.74264 -2.57919,-12.34757 -2.76211,-12.34757 z"
             id="path2315"
             inkscape:connector-curvature="0"
             sodipodi:nodetypes="scccss" />
          <ellipse
             ry="8.7931681"
             rx="5.238483"
             cy="132.85904"
             cx="-139.54056"
             id="ellipse2317"
             style="opacity:1;fill:#ffffff;fill-opacity:1;stroke:#ffffff;stroke-width:1.32300007;stroke-miterlimit:4;stroke-dasharray:none;stroke-opacity:1" />
        </g>
        <g
           id="g2333"
           style="fill:#ffffff;stroke:#ffffff">
          <g
             id="g2325"
             transform="rotate(-8.3574487,-120.12576,23.89512)"
             style="fill:#ffffff;stroke:#ffffff">
            <path
               style="opacity:1;fill:#ffffff;fill-opacity:1;stroke:#ffffff;stroke-width:1.32300007;stroke-miterlimit:4;stroke-dasharray:none;stroke-opacity:1"
               d="m -71.596873,126.30191 c -0.17929,-0.0362 -3.80125,4.87226 -5.15052,11.55698 -0.54652,1.86428 1.14018,-0.13394 2.77523,0.21117 2.04166,0.43094 2.72993,1.61998 2.35924,-0.28746 -0.79305,-4.08072 0.19543,-11.44448 0.0161,-11.48067 z"
               id="path2321"
               inkscape:connector-curvature="0"
               sodipodi:nodetypes="scssss" />
            <ellipse
               ry="8.7931681"
               rx="5.238483"
               cy="149.79237"
               cx="-74.176964"
               id="ellipse2323"
               style="opacity:1;fill:#ffffff;fill-opacity:1;stroke:#ffffff;stroke-width:1.32300007;stroke-miterlimit:4;stroke-dasharray:none;stroke-opacity:1" />
          </g>
          <g
             transform="rotate(-15,-52.930991,128.59798)"
             id="g2331"
             style="fill:#ffffff;stroke:#ffffff">
            <path
               sodipodi:nodetypes="scssss"
               inkscape:connector-curvature="0"
               id="path2327"
               d="m -71.596873,126.30191 c -0.17929,-0.0362 -3.80125,4.87226 -5.15052,11.55698 -0.54652,1.86428 1.14018,-0.13394 2.77523,0.21117 2.04166,0.43094 2.72993,1.61998 2.35924,-0.28746 -0.79305,-4.08072 0.19543,-11.44448 0.0161,-11.48067 z"
               style="opacity:1;fill:#ffffff;fill-opacity:1;stroke:#ffffff;stroke-width:1.32300007;stroke-miterlimit:4;stroke-dasharray:none;stroke-opacity:1" />
            <ellipse
               style="opacity:1;fill:#ffffff;fill-opacity:1;stroke:#ffffff;stroke-width:1.32300007;stroke-miterlimit:4;stroke-dasharray:none;stroke-opacity:1"
               id="ellipse2329"
               cx="-74.176964"
               cy="149.79237"
               rx="5.238483"
               ry="8.7931681" />
          </g>
        </g>
        <g
           transform="matrix(-1,0,0,1,-81.227084,0)"
           id="g2347"
           style="fill:#ffffff;stroke:#ffffff">
          <g
             transform="rotate(-8.3574487,-120.12576,23.89512)"
             id="g2339"
             style="fill:#ffffff;stroke:#ffffff">
            <path
               sodipodi:nodetypes="scssss"
               inkscape:connector-curvature="0"
               id="path2335"
               d="m -71.596873,126.30191 c -0.17929,-0.0362 -3.80125,4.87226 -5.15052,11.55698 -0.54652,1.86428 1.14018,-0.13394 2.77523,0.21117 2.04166,0.43094 2.72993,1.61998 2.35924,-0.28746 -0.79305,-4.08072 0.19543,-11.44448 0.0161,-11.48067 z"
               style="opacity:1;fill:#ffffff;fill-opacity:1;stroke:#ffffff;stroke-width:1.32300007;stroke-miterlimit:4;stroke-dasharray:none;stroke-opacity:1" />
            <ellipse
               style="opacity:1;fill:#ffffff;fill-opacity:1;stroke:#ffffff;stroke-width:1.32300007;stroke-miterlimit:4;stroke-dasharray:none;stroke-opacity:1"
               id="ellipse2337"
               cx="-74.176964"
               cy="149.79237"
               rx="5.238483"
               ry="8.7931681" />
          </g>
          <g
             id="g2345"
             transform="rotate(-15,-52.930991,128.59798)"
             style="fill:#ffffff;stroke:#ffffff">
            <path
               style="opacity:1;fill:#ffffff;fill-opacity:1;stroke:#ffffff;stroke-width:1.32300007;stroke-miterlimit:4;stroke-dasharray:none;stroke-opacity:1"
               d="m -71.596873,126.30191 c -0.17929,-0.0362 -3.80125,4.87226 -5.15052,11.55698 -0.54652,1.86428 1.14018,-0.13394 2.77523,0.21117 2.04166,0.43094 2.72993,1.61998 2.35924,-0.28746 -0.79305,-4.08072 0.19543,-11.44448 0.0161,-11.48067 z"
               id="path2341"
               inkscape:connector-curvature="0"
               sodipodi:nodetypes="scssss" />
            <ellipse
               ry="8.7931681"
               rx="5.238483"
               cy="149.79237"
               cx="-74.176964"
               id="ellipse2343"
               style="opacity:1;fill:#ffffff;fill-opacity:1;stroke:#ffffff;stroke-width:1.32300007;stroke-miterlimit:4;stroke-dasharray:none;stroke-opacity:1" />
          </g>
        </g>
      </g>
    </g>
    <g
       style="opacity:0.5;fill:#ffffff;stroke:#ffffff"
       transform="matrix(0.21035984,0,0,0.21035984,60.986875,237.93402)"
       id="g2431">
      <path
         sodipodi:nodetypes="ssscscszs"
         inkscape:connector-curvature="0"
         id="path2393"
         d="m -39.6875,149.36246 c -6.767523,0 -14.240112,11.863 -19.608353,17.4803 -5.368242,5.61731 -8.632137,4.98892 -8.569772,11.75616 0.06724,7.29614 6.929792,15.47812 15.478125,15.47812 5.069462,-0.002 7.638293,-2.1489 12.707752,-2.15284 5.063985,-0.004 7.628268,2.14567 12.692248,2.15284 8.548332,0 15.410885,-8.18198 15.478125,-15.47812 0.06237,-6.76724 -3.995279,-6.13885 -9.363521,-11.75616 -5.368242,-5.6173 -12.047081,-17.4803 -18.814604,-17.4803 z"
         style="opacity:1;fill:#ffffff;fill-opacity:1;stroke:#ffffff;stroke-width:1.32300007;stroke-miterlimit:4;stroke-dasharray:none;stroke-opacity:1" />
      <g
         style="fill:#ffffff;stroke:#ffffff"
         transform="translate(0.92596614)"
         id="g2429">
        <g
           style="fill:#ffffff;stroke:#ffffff"
           id="g2399"
           transform="translate(98.927017,3.7041667)">
          <path
             sodipodi:nodetypes="scccss"
             inkscape:connector-curvature="0"
             id="path2395"
             d="m -139.53249,109.06498 c -0.1829,0 -2.7621,7.60493 -2.7621,12.34757 -0.16686,1.93555 1.09142,-0.30832 2.76215,-0.3421 2.08556,0.067 2.76109,2.28522 2.76216,0.3421 0,-4.74264 -2.57919,-12.34757 -2.76211,-12.34757 z"
             style="opacity:1;fill:#ffffff;fill-opacity:1;stroke:#ffffff;stroke-width:1.32300007;stroke-miterlimit:4;stroke-dasharray:none;stroke-opacity:1" />
          <ellipse
             style="opacity:1;fill:#ffffff;fill-opacity:1;stroke:#ffffff;stroke-width:1.32300007;stroke-miterlimit:4;stroke-dasharray:none;stroke-opacity:1"
             id="ellipse2397"
             cx="-139.54056"
             cy="132.85904"
             rx="5.238483"
             ry="8.7931681" />
        </g>
        <g
           style="fill:#ffffff;stroke:#ffffff"
           id="g2413">
          <g
             style="fill:#ffffff;stroke:#ffffff"
             transform="rotate(-8.3574487,-120.12576,23.89512)"
             id="g2405">
            <path
               sodipodi:nodetypes="scssss"
               inkscape:connector-curvature="0"
               id="path2401"
               d="m -71.596873,126.30191 c -0.17929,-0.0362 -3.80125,4.87226 -5.15052,11.55698 -0.54652,1.86428 1.14018,-0.13394 2.77523,0.21117 2.04166,0.43094 2.72993,1.61998 2.35924,-0.28746 -0.79305,-4.08072 0.19543,-11.44448 0.0161,-11.48067 z"
               style="opacity:1;fill:#ffffff;fill-opacity:1;stroke:#ffffff;stroke-width:1.32300007;stroke-miterlimit:4;stroke-dasharray:none;stroke-opacity:1" />
            <ellipse
               style="opacity:1;fill:#ffffff;fill-opacity:1;stroke:#ffffff;stroke-width:1.32300007;stroke-miterlimit:4;stroke-dasharray:none;stroke-opacity:1"
               id="ellipse2403"
               cx="-74.176964"
               cy="149.79237"
               rx="5.238483"
               ry="8.7931681" />
          </g>
          <g
             style="fill:#ffffff;stroke:#ffffff"
             id="g2411"
             transform="rotate(-15,-52.930991,128.59798)">
            <path
               style="opacity:1;fill:#ffffff;fill-opacity:1;stroke:#ffffff;stroke-width:1.32300007;stroke-miterlimit:4;stroke-dasharray:none;stroke-opacity:1"
               d="m -71.596873,126.30191 c -0.17929,-0.0362 -3.80125,4.87226 -5.15052,11.55698 -0.54652,1.86428 1.14018,-0.13394 2.77523,0.21117 2.04166,0.43094 2.72993,1.61998 2.35924,-0.28746 -0.79305,-4.08072 0.19543,-11.44448 0.0161,-11.48067 z"
               id="path2407"
               inkscape:connector-curvature="0"
               sodipodi:nodetypes="scssss" />
            <ellipse
               ry="8.7931681"
               rx="5.238483"
               cy="149.79237"
               cx="-74.176964"
               id="ellipse2409"
               style="opacity:1;fill:#ffffff;fill-opacity:1;stroke:#ffffff;stroke-width:1.32300007;stroke-miterlimit:4;stroke-dasharray:none;stroke-opacity:1" />
          </g>
        </g>
        <g
           style="fill:#ffffff;stroke:#ffffff"
           id="g2427"
           transform="matrix(-1,0,0,1,-81.227084,0)">
          <g
             style="fill:#ffffff;stroke:#ffffff"
             id="g2419"
             transform="rotate(-8.3574487,-120.12576,23.89512)">
            <path
               style="opacity:1;fill:#ffffff;fill-opacity:1;stroke:#ffffff;stroke-width:1.32300007;stroke-miterlimit:4;stroke-dasharray:none;stroke-opacity:1"
               d="m -71.596873,126.30191 c -0.17929,-0.0362 -3.80125,4.87226 -5.15052,11.55698 -0.54652,1.86428 1.14018,-0.13394 2.77523,0.21117 2.04166,0.43094 2.72993,1.61998 2.35924,-0.28746 -0.79305,-4.08072 0.19543,-11.44448 0.0161,-11.48067 z"
               id="path2415"
               inkscape:connector-curvature="0"
               sodipodi:nodetypes="scssss" />
            <ellipse
               ry="8.7931681"
               rx="5.238483"
               cy="149.79237"
               cx="-74.176964"
               id="ellipse2417"
               style="opacity:1;fill:#ffffff;fill-opacity:1;stroke:#ffffff;stroke-width:1.32300007;stroke-miterlimit:4;stroke-dasharray:none;stroke-opacity:1" />
          </g>
          <g
             style="fill:#ffffff;stroke:#ffffff"
             transform="rotate(-15,-52.930991,128.59798)"
             id="g2425">
            <path
               sodipodi:nodetypes="scssss"
               inkscape:connector-curvature="0"
               id="path2421"
               d="m -71.596873,126.30191 c -0.17929,-0.0362 -3.80125,4.87226 -5.15052,11.55698 -0.54652,1.86428 1.14018,-0.13394 2.77523,0.21117 2.04166,0.43094 2.72993,1.61998 2.35924,-0.28746 -0.79305,-4.08072 0.19543,-11.44448 0.0161,-11.48067 z"
               style="opacity:1;fill:#ffffff;fill-opacity:1;stroke:#ffffff;stroke-width:1.32300007;stroke-miterlimit:4;stroke-dasharray:none;stroke-opacity:1" />
            <ellipse
               style="opacity:1;fill:#ffffff;fill-opacity:1;stroke:#ffffff;stroke-width:1.32300007;stroke-miterlimit:4;stroke-dasharray:none;stroke-opacity:1"
               id="ellipse2423"
               cx="-74.176964"
               cy="149.79237"
               rx="5.238483"
               ry="8.7931681" />
          </g>
        </g>
      </g>
    </g>
    <rect
       y="244.08331"
       x="52.916676"
       height="52.916668"
       width="19.614885"
       id="rect2446"
       style="opacity:1;fill:#de8787;fill-opacity:1;stroke:none;stroke-width:1.39968586;stroke-linejoin:round;stroke-miterlimit:4;stroke-dasharray:none;stroke-opacity:1" />
    <rect
       style="opacity:1;fill:#de8787;fill-opacity:1;stroke:none;stroke-width:1.39968586;stroke-linejoin:round;stroke-miterlimit:4;stroke-dasharray:none;stroke-opacity:1"
       id="rect2448"
       width="19.614885"
       height="52.916668"
       x="-19.614883"
       y="244.08331" />
    <rect
       y="222.59753"
       x="0"
       height="21.485771"
       width="52.916668"
       id="rect2450"
       style="opacity:1;fill:#ff5555;fill-opacity:1;stroke:none;stroke-width:1.46491754;stroke-linejoin:round;stroke-miterlimit:4;stroke-dasharray:none;stroke-opacity:1" />
    <rect
       style="opacity:1;fill:#ff5555;fill-opacity:1;stroke:none;stroke-width:1.46491754;stroke-linejoin:round;stroke-miterlimit:4;stroke-dasharray:none;stroke-opacity:1"
       id="rect2452"
       width="52.916668"
       height="21.485771"
       x="0"
       y="296.99997" />
  </g>
</svg>
