<?xml version="1.0" encoding="UTF-8" standalone="no"?>
<svg
   xmlns:dc="http://purl.org/dc/elements/1.1/"
   xmlns:cc="http://creativecommons.org/ns#"
   xmlns:rdf="http://www.w3.org/1999/02/22-rdf-syntax-ns#"
   xmlns:svg="http://www.w3.org/2000/svg"
   xmlns="http://www.w3.org/2000/svg"
   xmlns:sodipodi="http://sodipodi.sourceforge.net/DTD/sodipodi-0.dtd"
   xmlns:inkscape="http://www.inkscape.org/namespaces/inkscape"
   version="1.1"
   viewBox="0 0 277.77802 219.851"
   xml:space="preserve"
   id="svg9075"
   sodipodi:docname="plan2.svg"
   inkscape:version="0.92.3 (2405546, 2018-03-11)"
   width="277.77802"
   height="219.851"><metadata
     id="metadata9081"><rdf:RDF><cc:Work
         rdf:about=""><dc:format>image/svg+xml</dc:format><dc:type
           rdf:resource="http://purl.org/dc/dcmitype/StillImage" /><dc:title></dc:title></cc:Work></rdf:RDF></metadata><defs
     id="defs9079" /><sodipodi:namedview
     pagecolor="#ffffff"
     bordercolor="#666666"
     borderopacity="1"
     objecttolerance="10"
     gridtolerance="10"
     guidetolerance="10"
     inkscape:pageopacity="0"
     inkscape:pageshadow="2"
     inkscape:window-width="1366"
     inkscape:window-height="705"
     id="namedview9077"
     showgrid="false"
     inkscape:zoom="0.472"
     inkscape:cx="138.889"
     inkscape:cy="109.928"
     inkscape:window-x="-8"
     inkscape:window-y="-8"
     inkscape:window-maximized="1"
     inkscape:current-layer="svg9075"
     fit-margin-top="0"
     fit-margin-left="0"
     fit-margin-right="0"
     fit-margin-bottom="0" /><g
     id="_x33_8"
     transform="translate(-111.111,-140.077)"><g
       id="g9040"><path
         d="M 362.782,140.077 H 137.218 c -14.404,0.027 -26.096,11.708 -26.107,26.117 v 167.622 c 0.011,14.404 11.702,26.09 26.107,26.112 h 225.564 c 14.404,-0.023 26.096,-11.708 26.107,-26.112 V 166.194 c -0.011,-14.409 -11.703,-26.09 -26.107,-26.117 z m -2.772,16.738 c 3.277,0 5.94,2.658 5.94,5.935 0,3.277 -2.663,5.93 -5.94,5.93 -3.282,0 -5.936,-2.653 -5.936,-5.93 0,-3.277 2.653,-5.935 5.936,-5.935 z m -46.653,0.352 h 29.189 c 3.092,0 5.582,2.506 5.582,5.583 0,3.082 -2.49,5.582 -5.582,5.582 h -29.189 c -3.093,0 -5.583,-2.501 -5.583,-5.582 0,-3.077 2.491,-5.583 5.583,-5.583 z m 61.295,176.649 c -0.021,6.483 -5.387,11.865 -11.87,11.865 H 137.218 c -6.483,0 -11.849,-5.382 -11.871,-11.865 V 182.938 h 249.305 z"
         style="fill:#675f58"
         id="path9038"
         inkscape:connector-curvature="0" /></g><g
       id="g9068"><rect
         height="11.892"
         style="fill:#ff931e"
         width="94.445"
         x="149.09399"
         y="316.13501"
         id="rect9042" /><rect
         height="11.892"
         style="fill:#ff931e"
         width="94.444"
         x="256.46201"
         y="316.13501"
         id="rect9044" /><g
         id="g9058"><rect
           height="5.5560002"
           style="fill:#817b75"
           width="109.229"
           x="241.67799"
           y="220.52901"
           id="rect9046" /><rect
           height="5.5560002"
           style="fill:#817b75"
           width="109.229"
           x="241.67799"
           y="203.02699"
           id="rect9048" /><rect
           height="5.5560002"
           style="fill:#817b75"
           width="109.229"
           x="241.67799"
           y="238.026"
           id="rect9050" /><rect
           height="5.5560002"
           style="fill:#817b75"
           width="109.229"
           x="241.67799"
           y="255.528"
           id="rect9052" /><rect
           height="5.5560002"
           style="fill:#817b75"
           width="200.922"
           x="149.98399"
           y="296.77701"
           id="rect9054" /><rect
           height="5.5560002"
           style="fill:#817b75"
           width="200.922"
           x="149.98399"
           y="279.27499"
           id="rect9056" /></g><g
         id="g9066"><path
           d="m 149.094,261.198 c 0,3.054 2.501,5.556 5.556,5.556 h 61.111 c 3.055,0 5.556,-2.502 5.556,-5.556 v -52.615 c 0,-3.055 -2.501,-5.556 -5.556,-5.556 H 154.65 c -3.054,0 -5.556,2.501 -5.556,5.556 z"
           style="fill:#ff931e"
           id="path9060"
           inkscape:connector-curvature="0" /><path
           d="m 213.135,224.577 5.751,5.746 v 24.083 c 0,6.842 -4.384,9.186 -9.736,9.186 h -15.025 -17.136 -15.025 c -5.36,0 -9.744,-2.344 -9.744,-9.186 v -5.463 l 17.036,-15.641 c 3.157,-2.898 5.165,-3.972 6.741,-3.944 1.622,-0.038 3.741,1.145 7.053,3.955 l 20.071,18.43 c 0.293,0.267 0.659,0.401 1.031,0.401 0.412,0 0.822,-0.168 1.126,-0.493 0.572,-0.618 0.531,-1.59 -0.095,-2.159 l -13.213,-12.131 12.812,-12.815 c 2.073,-2.072 3.329,-2.723 4.069,-2.685 0.76,-0.051 2.105,0.687 4.284,2.716 z"
           style="fill:#675f58"
           id="path9062"
           inkscape:connector-curvature="0" /><path
           d="m 177.938,219.585 c 0,-4.6 3.73,-8.333 8.338,-8.333 4.596,0 8.328,3.733 8.328,8.333 0,4.595 -3.732,8.333 -8.328,8.333 -4.608,0.001 -8.338,-3.737 -8.338,-8.333 z"
           style="fill:#f4f1f0"
           id="path9064"
           inkscape:connector-curvature="0" /></g></g></g><g
     id="Layer_1"
     transform="translate(-111.111,-140.077)" /></svg>