<?xml version="1.0" encoding="UTF-8" standalone="no"?>
<svg
   xmlns:dc="http://purl.org/dc/elements/1.1/"
   xmlns:cc="http://creativecommons.org/ns#"
   xmlns:rdf="http://www.w3.org/1999/02/22-rdf-syntax-ns#"
   xmlns:svg="http://www.w3.org/2000/svg"
   xmlns="http://www.w3.org/2000/svg"
   xmlns:sodipodi="http://sodipodi.sourceforge.net/DTD/sodipodi-0.dtd"
   xmlns:inkscape="http://www.inkscape.org/namespaces/inkscape"
   version="1.1"
   viewBox="0 0 277.77701 219.845"
   xml:space="preserve"
   id="svg9733"
   sodipodi:docname="plan3.svg"
   inkscape:version="0.92.3 (2405546, 2018-03-11)"
   width="277.77701"
   height="219.845"><metadata
     id="metadata9739"><rdf:RDF><cc:Work
         rdf:about=""><dc:format>image/svg+xml</dc:format><dc:type
           rdf:resource="http://purl.org/dc/dcmitype/StillImage" /><dc:title></dc:title></cc:Work></rdf:RDF></metadata><defs
     id="defs9737" /><sodipodi:namedview
     pagecolor="#ffffff"
     bordercolor="#666666"
     borderopacity="1"
     objecttolerance="10"
     gridtolerance="10"
     guidetolerance="10"
     inkscape:pageopacity="0"
     inkscape:pageshadow="2"
     inkscape:window-width="1366"
     inkscape:window-height="705"
     id="namedview9735"
     showgrid="false"
     inkscape:zoom="0.472"
     inkscape:cx="138.888"
     inkscape:cy="109.922"
     inkscape:window-x="-8"
     inkscape:window-y="-8"
     inkscape:window-maximized="1"
     inkscape:current-layer="svg9733"
     fit-margin-top="0"
     fit-margin-left="0"
     fit-margin-right="0"
     fit-margin-bottom="0" /><g
     id="_x31_4"
     transform="translate(-111.112,-140.077)"><g
       id="g9724"><g
         id="g9706"><polygon
           points="252.496,203.863 249.62,211.301 241.867,213.146 248.047,218.169 247.417,226.118 254.107,221.794 261.469,224.864 259.418,217.149 264.61,211.095 256.646,210.661 "
           style="fill:#ff931e"
           id="polygon9704" /></g><g
         id="g9710"><polygon
           points="287.636,276.546 292.6,270.307 300.548,270.855 296.143,264.209 299.127,256.809 291.444,258.936 285.335,253.83 284.988,261.789 278.233,266.022 285.704,268.81 "
           style="fill:#ff931e"
           id="polygon9708" /></g><g
         id="g9714"><polygon
           points="315.82,235.823 325.711,247.477 328.944,232.536 343.083,226.741 329.872,219.048 328.722,203.814 317.328,213.992 302.479,210.379 308.648,224.365 300.618,237.375 "
           style="fill:#ff931e"
           id="polygon9712" /></g><g
         id="g9718"><polygon
           points="267.703,251.096 259.988,239.849 177.745,296.229 185.455,307.487 "
           style="fill:#675f58"
           id="polygon9716" /></g><g
         id="g9722"><polygon
           points="181.706,310.065 174.002,298.811 148.638,316.194 156.353,327.436 "
           style="fill:#675f58"
           id="polygon9720" /></g></g><path
       d="M 362.776,140.077 H 137.229 c -14.415,0.021 -26.09,11.708 -26.117,26.117 v 167.611 c 0.027,14.409 11.702,26.09 26.117,26.117 h 225.548 c 14.41,-0.027 26.097,-11.708 26.112,-26.117 V 166.194 c -0.016,-14.409 -11.703,-26.095 -26.113,-26.117 z m -2.772,16.732 c 3.283,0 5.941,2.659 5.941,5.941 0,3.271 -2.658,5.93 -5.941,5.93 -3.276,0 -5.93,-2.659 -5.93,-5.93 0,-3.283 2.653,-5.941 5.93,-5.941 z m -46.642,0.358 h 29.188 c 3.087,0 5.583,2.501 5.583,5.583 0,3.076 -2.496,5.582 -5.583,5.582 h -29.188 c -3.087,0 -5.582,-2.506 -5.582,-5.582 0,-3.082 2.495,-5.583 5.582,-5.583 z m 61.29,176.639 c -0.011,6.488 -5.392,11.859 -11.876,11.87 H 137.229 c -6.477,-0.011 -11.854,-5.382 -11.87,-11.87 V 182.938 h 249.294 v 150.868 z"
       style="fill:#675f58"
       id="path9726"
       inkscape:connector-curvature="0" /></g><g
     id="Layer_1"
     transform="translate(-111.112,-140.077)" /></svg>