<?xml version="1.0" encoding="UTF-8" standalone="no"?>
<svg
   xmlns:dc="http://purl.org/dc/elements/1.1/"
   xmlns:cc="http://creativecommons.org/ns#"
   xmlns:rdf="http://www.w3.org/1999/02/22-rdf-syntax-ns#"
   xmlns:svg="http://www.w3.org/2000/svg"
   xmlns="http://www.w3.org/2000/svg"
   xmlns:sodipodi="http://sodipodi.sourceforge.net/DTD/sodipodi-0.dtd"
   xmlns:inkscape="http://www.inkscape.org/namespaces/inkscape"
   version="1.1"
   viewBox="0 0 277.77701 219.84599"
   xml:space="preserve"
   id="svg8417"
   sodipodi:docname="plan1.svg"
   inkscape:version="0.92.3 (2405546, 2018-03-11)"
   width="277.77701"
   height="219.84599"><metadata
     id="metadata8423"><rdf:RDF><cc:Work
         rdf:about=""><dc:format>image/svg+xml</dc:format><dc:type
           rdf:resource="http://purl.org/dc/dcmitype/StillImage" /><dc:title></dc:title></cc:Work></rdf:RDF></metadata><defs
     id="defs8421" /><sodipodi:namedview
     pagecolor="#ffffff"
     bordercolor="#666666"
     borderopacity="1"
     objecttolerance="10"
     gridtolerance="10"
     guidetolerance="10"
     inkscape:pageopacity="0"
     inkscape:pageshadow="2"
     inkscape:window-width="1366"
     inkscape:window-height="705"
     id="namedview8419"
     showgrid="false"
     inkscape:zoom="0.472"
     inkscape:cx="138.888"
     inkscape:cy="109.929"
     inkscape:window-x="-8"
     inkscape:window-y="-8"
     inkscape:window-maximized="1"
     inkscape:current-layer="svg8417"
     fit-margin-top="0"
     fit-margin-left="0"
     fit-margin-right="0"
     fit-margin-bottom="0" /><g
     id="_x32_8"
     transform="translate(-111.112,-140.083)"><g
       id="g8408"><rect
         height="37.043999"
         style="fill:#ff931e"
         width="37.033001"
         x="175.92799"
         y="217.686"
         id="rect8396" /><rect
         height="37.043999"
         style="fill:#ff931e"
         width="37.033001"
         x="231.483"
         y="217.686"
         id="rect8398" /><rect
         height="37.043999"
         style="fill:#ff931e"
         width="37.033001"
         x="287.039"
         y="217.686"
         id="rect8400" /><rect
         height="37.043999"
         style="fill:#ff931e"
         width="37.033001"
         x="175.92799"
         y="273.242"
         id="rect8402" /><rect
         height="37.043999"
         style="fill:#ff931e"
         width="37.033001"
         x="231.483"
         y="273.242"
         id="rect8404" /><rect
         height="37.043999"
         style="fill:#ff931e"
         width="37.033001"
         x="287.039"
         y="273.242"
         id="rect8406" /></g><path
       d="M 362.771,140.083 H 137.224 c -14.416,0.033 -26.091,11.707 -26.112,26.118 v 167.61 c 0.021,14.41 11.697,26.096 26.112,26.118 h 225.548 c 14.409,-0.023 26.096,-11.708 26.117,-26.118 V 166.2 c -0.022,-14.41 -11.708,-26.085 -26.118,-26.117 z m -2.767,16.742 c 3.277,0 5.936,2.658 5.936,5.935 0,3.277 -2.658,5.935 -5.936,5.935 -3.282,0 -5.935,-2.659 -5.935,-5.935 0,-3.277 2.653,-5.935 5.935,-5.935 z m -46.647,0.347 h 29.189 c 3.087,0 5.582,2.506 5.582,5.588 0,3.081 -2.495,5.578 -5.582,5.578 h -29.189 c -3.087,0 -5.583,-2.496 -5.583,-5.578 0,-3.081 2.496,-5.588 5.583,-5.588 z m 61.29,176.639 c -0.011,6.489 -5.393,11.871 -11.876,11.871 H 137.224 c -6.478,0 -11.855,-5.382 -11.871,-11.871 V 182.942 h 249.295 v 150.869 z"
       style="fill:#675f58"
       id="path8410"
       inkscape:connector-curvature="0" /></g><g
     id="Layer_1"
     transform="translate(-111.112,-140.083)" /></svg>