<?xml version="1.0" encoding="UTF-8" standalone="no"?>
<svg
   xmlns:dc="http://purl.org/dc/elements/1.1/"
   xmlns:cc="http://creativecommons.org/ns#"
   xmlns:rdf="http://www.w3.org/1999/02/22-rdf-syntax-ns#"
   xmlns:svg="http://www.w3.org/2000/svg"
   xmlns="http://www.w3.org/2000/svg"
   id="svg4061"
   version="1.1"
   viewBox="0 0 70.159584 50.905689"
   height="50.905689mm"
   width="70.159584mm">
  <defs
     id="defs4055" />
  <metadata
     id="metadata4058">
    <rdf:RDF>
      <cc:Work
         rdf:about="">
        <dc:format>image/svg+xml</dc:format>
        <dc:type
           rdf:resource="http://purl.org/dc/dcmitype/StillImage" />
        <dc:title></dc:title>
      </cc:Work>
    </rdf:RDF>
  </metadata>
  <g
     transform="translate(-16.324964,-43.249534)"
     id="layer1">
    <g
       transform="translate(-68.888931,-174.76467)"
       id="g3430">
      <g
         id="g3416"
         transform="translate(2.6458334,-7.1437533)">
        <ellipse
           ry="12.207537"
           rx="10.424996"
           cy="237.36549"
           cx="99.227112"
           id="path3334"
           style="opacity:1;fill:#483737;fill-opacity:1;stroke:none;stroke-width:1.71790481;stroke-linejoin:round;stroke-miterlimit:4;stroke-dasharray:none;stroke-opacity:1" />
        <rect
           ry="1.6624572"
           y="249.70573"
           x="94.895531"
           height="9.7234373"
           width="8.6631565"
           id="rect3346"
           style="opacity:1;fill:#e2b982;fill-opacity:1;stroke:none;stroke-width:1.41926014;stroke-linejoin:round;stroke-miterlimit:4;stroke-dasharray:none;stroke-opacity:1" />
        <path
           style="opacity:1;fill:#eacba2;fill-opacity:1;stroke:none;stroke-width:2.26405454;stroke-linejoin:round;stroke-miterlimit:4;stroke-dasharray:none;stroke-opacity:1"
           d="m 98.696701,233.05156 1.895059,0.0977 c 4.4849,0.23128 7.61561,1.0591 7.61561,5.53079 v 4.57438 c 0,4.47169 -3.61542,9.45368 -8.10634,9.45368 h -1.747849 c -4.490908,0 -8.106331,-4.98199 -8.106331,-9.45368 v -4.57438 c 0,-4.47169 3.964936,-5.8598 8.449851,-5.62851 z"
           id="path3402" />
        <ellipse
           style="opacity:1;fill:#483737;fill-opacity:1;stroke:none;stroke-width:0.94119662;stroke-linejoin:round;stroke-miterlimit:4;stroke-dasharray:none;stroke-opacity:1"
           id="ellipse3336"
           cx="99.227112"
           cy="234.46284"
           rx="8.9750595"
           ry="4.2562685" />
        <path
           style="opacity:1;fill:#1b9ed0;fill-opacity:1;stroke:none;stroke-width:0.79490131;stroke-linejoin:round;stroke-miterlimit:4;stroke-dasharray:none;stroke-opacity:1"
           d="m 84.162652,259.96495 c -2.44015,2.89686 -1.3534,11.28199 -1.3534,11.28199 -0.0881,0.73406 0.60013,1.20872 1.16582,1.48365 9.145,4.44457 21.358078,4.44358 30.503568,0 0.56581,-0.27492 1.2544,-0.74959 1.16633,-1.48365 0,0 1.08675,-8.38514 -1.35341,-11.28199 -3.37621,-4.00809 -9.82414,-4.49742 -15.064698,-4.4974 -5.24042,2e-5 -11.68812,0.48942 -15.06421,4.4974 z"
           id="path3371" />
      </g>
      <g
         id="g3409"
         transform="translate(-4.4979167,-6.6145833)">
        <rect
           style="opacity:1;fill:#f4dca5;fill-opacity:1;stroke:none;stroke-width:1.41926014;stroke-linejoin:round;stroke-miterlimit:4;stroke-dasharray:none;stroke-opacity:1"
           id="rect3365"
           width="8.6631565"
           height="9.7234373"
           x="138.88077"
           y="249.14447"
           ry="1.6624572" />
        <path
           id="rect3338"
           d="m 128.14789,259.43578 c -2.44015,2.89686 -1.3534,11.28199 -1.3534,11.28199 -0.0881,0.73406 0.60013,1.20872 1.16582,1.48365 9.145,4.44457 21.35808,4.44358 30.50356,0 0.56582,-0.27492 1.25441,-0.74959 1.16634,-1.48365 0,0 1.08675,-8.38514 -1.35341,-11.28199 -3.37621,-4.00809 -9.82414,-4.49742 -15.06471,-4.4974 -5.24041,2e-5 -11.68811,0.48942 -15.0642,4.4974 z"
           style="opacity:1;fill:#16d28b;fill-opacity:1;stroke:none;stroke-width:0.79490131;stroke-linejoin:round;stroke-miterlimit:4;stroke-dasharray:none;stroke-opacity:1" />
        <rect
           style="opacity:1;fill:#483737;fill-opacity:1;stroke:none;stroke-width:2.50242043;stroke-linejoin:round;stroke-miterlimit:4;stroke-dasharray:none;stroke-opacity:1"
           id="rect3385"
           width="19.550766"
           height="23.251036"
           x="133.43697"
           y="227.53143"
           ry="11.625518" />
        <path
           id="rect3374"
           d="m 142.7068,232.3032 1.80623,0.0977 c 4.27467,0.23128 7.25863,1.0591 7.25863,5.53079 v 4.57438 c 0,4.47169 -3.44595,9.45368 -7.72635,9.45368 h -1.66592 c -4.2804,0 -7.72635,-4.98199 -7.72635,-9.45368 v -4.57438 c 0,-4.47169 3.77908,-5.8598 8.05376,-5.62851 z"
           style="opacity:1;fill:#f8e9c6;fill-opacity:1;stroke:none;stroke-width:2.21035385;stroke-linejoin:round;stroke-miterlimit:4;stroke-dasharray:none;stroke-opacity:1" />
        <path
           id="rect3390"
           d="m 136.72756,232.40328 13.51759,-1.16497 1.28623,2.76317 c 0,0 1.10857,1.78753 0.53788,2.35608 -1.92429,1.91707 -5.22185,-1.78635 -7.9375,-1.84349 -3.31981,-0.0699 -7.89534,4.57074 -9.78958,1.84349 -0.87814,-1.26431 2.38538,-3.95428 2.38538,-3.95428 z"
           style="opacity:1;fill:#483737;fill-opacity:1;stroke:none;stroke-width:2.05240774;stroke-linejoin:round;stroke-miterlimit:4;stroke-dasharray:none;stroke-opacity:1" />
      </g>
    </g>
  </g>
</svg>
